<?xml version="1.0" encoding="iso-8859-1"?>
<!-- Generator: Adobe Illustrator 19.0.0, SVG Export Plug-In . SVG Version: 6.00 Build 0)  -->
<svg version="1.1" id="Layer_1" xmlns="http://www.w3.org/2000/svg" xmlns:xlink="http://www.w3.org/1999/xlink" x="0px" y="0px"
	 viewBox="0 0 490.667 490.667" style="enable-background:new 0 0 490.667 490.667;" xml:space="preserve">
<g>
	<g>
		<path d="M409.707,0H80.96C62.72,0,48,14.72,48,32.96v424.747c0,18.133,14.72,32.96,32.96,32.96h328.747
			c18.133,0,32.96-14.72,32.96-32.96V32.96C442.667,14.72,427.947,0,409.707,0z M229.333,469.333H80.96
			c-6.4,0-11.627-5.227-11.627-11.627V341.333h160V469.333z M229.333,320h-49.6l-22.187-66.88c-1.813-5.547-7.893-8.64-13.44-6.827
			c-5.547,1.813-8.64,7.893-6.827,13.44l20.053,60.16h-10.88l-22.187-66.88c-1.813-5.547-7.893-8.64-13.44-6.827
			c-5.547,1.813-8.64,7.893-6.827,13.44l19.947,60.16h-10.88l-22.187-66.88c-1.813-5.547-7.893-8.64-13.44-6.827
			c-5.547,1.813-8.64,7.893-6.827,13.44L90.667,320H69.333V170.667h160V320z M229.333,149.333h-83.947l-21.12-63.787
			c-1.813-5.547-7.893-8.64-13.44-6.827c-5.547,1.813-8.64,7.893-6.827,13.44l18.987,57.067h-10.88l-21.12-63.68
			c-1.813-5.547-7.893-8.64-13.44-6.827c-5.547,1.813-8.64,7.893-6.827,13.44l18.987,57.173H69.333V32.96
			c0-6.4,5.227-11.627,11.627-11.627h148.373V149.333z M421.333,457.707c0,6.4-5.227,11.627-11.627,11.627h-159.04v-128h170.667
			V457.707z M325.333,309.333v-96h32v96H325.333z M421.333,320h-42.667V202.667c0-5.867-4.8-10.667-10.667-10.667h-53.333
			C308.8,192,304,196.8,304,202.667V320h-53.333V21.333h159.04c6.4,0,11.627,5.227,11.627,11.627V320z"/>
	</g>
</g>
<g>
</g>
<g>
</g>
<g>
</g>
<g>
</g>
<g>
</g>
<g>
</g>
<g>
</g>
<g>
</g>
<g>
</g>
<g>
</g>
<g>
</g>
<g>
</g>
<g>
</g>
<g>
</g>
<g>
</g>
</svg>
