<?xml version="1.0" standalone="no"?>
<!DOCTYPE svg PUBLIC "-//W3C//DTD SVG 20010904//EN"
 "http://www.w3.org/TR/2001/REC-SVG-20010904/DTD/svg10.dtd">
<svg version="1.0" xmlns="http://www.w3.org/2000/svg"
 width="700.000000pt" height="700.000000pt" viewBox="0 0 700.000000 700.000000"
 preserveAspectRatio="xMidYMid meet">
<metadata>
Created by potrace 1.14, written by Peter Selinger 2001-2017
</metadata>
<g transform="translate(0.000000,700.000000) scale(0.100000,-0.100000)"
fill="#000000" stroke="none">
<path d="M1035 6984 c-180 -53 -301 -183 -341 -364 -11 -48 -12 -6173 -1
-6235 26 -154 143 -291 302 -356 l60 -24 2440 0 c2335 0 2442 1 2494 18 143
48 249 154 303 304 l22 58 1 3100 c1 2606 -1 3109 -13 3155 -43 170 -181 306
-350 346 -47 11 -485 14 -2462 13 -2084 0 -2412 -2 -2455 -15z m2235 -1201 l0
-913 -598 0 -598 0 -11 33 c-6 17 -75 226 -153 462 -79 237 -152 442 -162 458
-81 114 -275 48 -270 -92 1 -20 63 -218 137 -441 74 -223 135 -408 135 -412 0
-5 -33 -8 -74 -8 -71 0 -74 1 -84 28 -6 15 -77 225 -157 467 -155 468 -162
484 -232 509 -92 32 -184 -27 -200 -127 -3 -19 27 -127 93 -325 53 -164 100
-306 105 -317 8 -21 55 -160 69 -207 l9 -28 -145 0 -144 0 0 845 c0 727 2 851
15 881 15 37 51 72 93 89 15 6 404 10 1098 10 l1074 0 0 -912z m2657 887 c29
-16 50 -38 63 -65 20 -41 20 -62 20 -2106 l0 -2065 -300 0 c-259 1 -301 3
-304 16 -2 8 -4 391 -4 850 1 780 0 838 -17 873 -9 21 -32 47 -49 60 -31 22
-32 22 -468 22 -428 0 -437 0 -465 -21 -15 -12 -37 -36 -47 -54 -19 -32 -19
-62 -20 -886 l0 -853 -20 -4 c-33 -7 -720 -3 -731 5 -7 4 -10 722 -9 2125 1
1165 2 2120 3 2123 1 3 520 5 1154 5 l1152 0 42 -25z m-2657 -3170 l0 -1066
-352 1 -353 0 -161 484 c-89 266 -169 497 -180 512 -10 15 -36 36 -57 45 -97
44 -200 -14 -214 -121 -3 -22 41 -166 142 -469 80 -241 143 -441 141 -445 -7
-10 -135 -7 -145 4 -5 6 -79 224 -166 485 -86 261 -163 485 -171 497 -19 30
-56 53 -99 63 -99 22 -197 -75 -175 -175 4 -16 70 -220 148 -452 83 -252 135
-423 129 -424 -46 -2 -139 0 -143 3 -2 3 -74 215 -159 473 -86 258 -163 484
-171 502 -23 46 -76 77 -136 76 -52 0 -86 -18 -121 -64 -42 -57 -38 -74 117
-545 80 -242 146 -443 146 -445 0 -3 -67 -5 -150 -5 l-150 0 0 1066 0 1065
1140 0 1140 0 0 -1065z m1827 -227 c1 -511 -2 -683 -10 -684 -17 -1 -409 -1
-429 0 -15 1 -16 56 -16 684 l0 683 226 0 227 -1 2 -682z m-1827 -2056 l0
-912 -1077 1 c-734 0 -1086 4 -1103 11 -33 14 -76 61 -89 96 -8 19 -11 300
-11 873 l0 844 1140 0 1140 0 0 -913z m2740 68 c0 -696 -2 -851 -14 -878 -18
-43 -63 -83 -106 -94 -26 -7 -2283 -11 -2310 -4 -4 1 -5 1809 -1 1819 1 1 548
2 1216 2 l1215 0 0 -845z"/>
</g>
</svg>
